<mxfile host="app.diagrams.net" modified="2023-10-01T11:32:09.866Z" agent="Mozilla/5.0 (Windows NT 10.0; Win64; x64) AppleWebKit/537.36 (KHTML, like Gecko) Chrome/117.0.0.0 Safari/537.36" etag="AiV2PVwdzPA0foZzvA60" version="21.8.2" type="device">
  <diagram name="Page-1" id="VPrNaX9Sbori8a0B1ZBJ">
    <mxGraphModel dx="699" dy="1929" grid="1" gridSize="10" guides="1" tooltips="1" connect="1" arrows="1" fold="1" page="1" pageScale="1" pageWidth="850" pageHeight="1100" math="0" shadow="0">
      <root>
        <mxCell id="0" />
        <mxCell id="1" parent="0" />
        <mxCell id="ZcXm5Vle8xfI6ytua30U-2" style="edgeStyle=orthogonalEdgeStyle;rounded=0;orthogonalLoop=1;jettySize=auto;html=1;" edge="1" parent="1" source="ZcXm5Vle8xfI6ytua30U-1">
          <mxGeometry relative="1" as="geometry">
            <mxPoint x="360" y="290" as="targetPoint" />
          </mxGeometry>
        </mxCell>
        <mxCell id="ZcXm5Vle8xfI6ytua30U-1" value="Start" style="ellipse;whiteSpace=wrap;html=1;" vertex="1" parent="1">
          <mxGeometry x="300" y="120" width="120" height="80" as="geometry" />
        </mxCell>
        <mxCell id="ZcXm5Vle8xfI6ytua30U-4" style="edgeStyle=orthogonalEdgeStyle;rounded=0;orthogonalLoop=1;jettySize=auto;html=1;" edge="1" parent="1" source="ZcXm5Vle8xfI6ytua30U-3">
          <mxGeometry relative="1" as="geometry">
            <mxPoint x="350" y="410" as="targetPoint" />
          </mxGeometry>
        </mxCell>
        <mxCell id="ZcXm5Vle8xfI6ytua30U-3" value="Input email and password" style="shape=parallelogram;perimeter=parallelogramPerimeter;whiteSpace=wrap;html=1;fixedSize=1;" vertex="1" parent="1">
          <mxGeometry x="290" y="290" width="120" height="60" as="geometry" />
        </mxCell>
        <mxCell id="ZcXm5Vle8xfI6ytua30U-6" style="edgeStyle=orthogonalEdgeStyle;rounded=0;orthogonalLoop=1;jettySize=auto;html=1;" edge="1" parent="1" source="ZcXm5Vle8xfI6ytua30U-5">
          <mxGeometry relative="1" as="geometry">
            <mxPoint x="150" y="560" as="targetPoint" />
          </mxGeometry>
        </mxCell>
        <mxCell id="ZcXm5Vle8xfI6ytua30U-25" style="edgeStyle=orthogonalEdgeStyle;rounded=0;orthogonalLoop=1;jettySize=auto;html=1;entryX=1;entryY=0.5;entryDx=0;entryDy=0;" edge="1" parent="1" source="ZcXm5Vle8xfI6ytua30U-5" target="ZcXm5Vle8xfI6ytua30U-3">
          <mxGeometry relative="1" as="geometry">
            <Array as="points">
              <mxPoint x="470" y="460" />
              <mxPoint x="470" y="320" />
            </Array>
          </mxGeometry>
        </mxCell>
        <mxCell id="ZcXm5Vle8xfI6ytua30U-5" value="Valid?" style="rhombus;whiteSpace=wrap;html=1;" vertex="1" parent="1">
          <mxGeometry x="300" y="410" width="100" height="100" as="geometry" />
        </mxCell>
        <mxCell id="ZcXm5Vle8xfI6ytua30U-7" value="YES" style="text;html=1;strokeColor=none;fillColor=none;align=center;verticalAlign=middle;whiteSpace=wrap;rounded=0;" vertex="1" parent="1">
          <mxGeometry x="190" y="430" width="60" height="30" as="geometry" />
        </mxCell>
        <mxCell id="ZcXm5Vle8xfI6ytua30U-10" style="edgeStyle=orthogonalEdgeStyle;rounded=0;orthogonalLoop=1;jettySize=auto;html=1;" edge="1" parent="1" source="ZcXm5Vle8xfI6ytua30U-8">
          <mxGeometry relative="1" as="geometry">
            <mxPoint x="150" y="690" as="targetPoint" />
          </mxGeometry>
        </mxCell>
        <mxCell id="ZcXm5Vle8xfI6ytua30U-8" value="Email Verification" style="rounded=0;whiteSpace=wrap;html=1;" vertex="1" parent="1">
          <mxGeometry x="90" y="560" width="120" height="60" as="geometry" />
        </mxCell>
        <mxCell id="ZcXm5Vle8xfI6ytua30U-12" style="edgeStyle=orthogonalEdgeStyle;rounded=0;orthogonalLoop=1;jettySize=auto;html=1;entryX=1;entryY=0.5;entryDx=0;entryDy=0;" edge="1" parent="1" source="ZcXm5Vle8xfI6ytua30U-11" target="ZcXm5Vle8xfI6ytua30U-8">
          <mxGeometry relative="1" as="geometry">
            <mxPoint x="260" y="730" as="targetPoint" />
            <Array as="points">
              <mxPoint x="270" y="730" />
              <mxPoint x="270" y="590" />
            </Array>
          </mxGeometry>
        </mxCell>
        <mxCell id="ZcXm5Vle8xfI6ytua30U-17" style="edgeStyle=orthogonalEdgeStyle;rounded=0;orthogonalLoop=1;jettySize=auto;html=1;" edge="1" parent="1" source="ZcXm5Vle8xfI6ytua30U-11">
          <mxGeometry relative="1" as="geometry">
            <mxPoint x="50" y="860" as="targetPoint" />
          </mxGeometry>
        </mxCell>
        <mxCell id="ZcXm5Vle8xfI6ytua30U-11" value="Verified?" style="rhombus;whiteSpace=wrap;html=1;" vertex="1" parent="1">
          <mxGeometry x="110" y="690" width="80" height="80" as="geometry" />
        </mxCell>
        <mxCell id="ZcXm5Vle8xfI6ytua30U-13" value="&lt;font style=&quot;font-size: 15px;&quot;&gt;OTP will be sent to the user&#39;s email&lt;/font&gt;" style="text;html=1;strokeColor=none;fillColor=none;align=center;verticalAlign=middle;whiteSpace=wrap;rounded=0;" vertex="1" parent="1">
          <mxGeometry x="280" y="620" width="120" height="70" as="geometry" />
        </mxCell>
        <mxCell id="ZcXm5Vle8xfI6ytua30U-15" value="NO" style="text;html=1;strokeColor=none;fillColor=none;align=center;verticalAlign=middle;whiteSpace=wrap;rounded=0;" vertex="1" parent="1">
          <mxGeometry x="190" y="700" width="60" height="30" as="geometry" />
        </mxCell>
        <mxCell id="ZcXm5Vle8xfI6ytua30U-16" value="YES" style="text;html=1;strokeColor=none;fillColor=none;align=center;verticalAlign=middle;whiteSpace=wrap;rounded=0;" vertex="1" parent="1">
          <mxGeometry x="50" y="690" width="60" height="30" as="geometry" />
        </mxCell>
        <mxCell id="ZcXm5Vle8xfI6ytua30U-21" style="edgeStyle=orthogonalEdgeStyle;rounded=0;orthogonalLoop=1;jettySize=auto;html=1;" edge="1" parent="1" source="ZcXm5Vle8xfI6ytua30U-19">
          <mxGeometry relative="1" as="geometry">
            <mxPoint x="60" y="1020" as="targetPoint" />
          </mxGeometry>
        </mxCell>
        <mxCell id="ZcXm5Vle8xfI6ytua30U-19" value="Verify user_role&lt;br&gt;" style="rounded=0;whiteSpace=wrap;html=1;" vertex="1" parent="1">
          <mxGeometry y="860" width="120" height="60" as="geometry" />
        </mxCell>
        <mxCell id="ZcXm5Vle8xfI6ytua30U-20" value="user_roles&lt;br style=&quot;font-size: 17px;&quot;&gt;applicant&lt;br style=&quot;font-size: 17px;&quot;&gt;member&lt;br style=&quot;font-size: 17px;&quot;&gt;admin" style="text;html=1;strokeColor=none;fillColor=none;align=center;verticalAlign=middle;whiteSpace=wrap;rounded=0;fontSize=17;" vertex="1" parent="1">
          <mxGeometry x="130" y="840" width="120" height="70" as="geometry" />
        </mxCell>
        <mxCell id="ZcXm5Vle8xfI6ytua30U-22" value="Redirect to respective dashboard depending on the user role" style="rounded=0;whiteSpace=wrap;html=1;" vertex="1" parent="1">
          <mxGeometry y="1030" width="120" height="60" as="geometry" />
        </mxCell>
        <mxCell id="ZcXm5Vle8xfI6ytua30U-23" value="there are dashboards for applicant, member, admin" style="text;html=1;strokeColor=none;fillColor=none;align=center;verticalAlign=middle;whiteSpace=wrap;rounded=0;fontSize=15;" vertex="1" parent="1">
          <mxGeometry x="130" y="1015" width="130" height="85" as="geometry" />
        </mxCell>
        <mxCell id="ZcXm5Vle8xfI6ytua30U-26" value="Display error message, and restrict the user from logging in if the credentials are incorrect" style="text;html=1;strokeColor=none;fillColor=none;align=center;verticalAlign=middle;whiteSpace=wrap;rounded=0;fontSize=16;" vertex="1" parent="1">
          <mxGeometry x="480" y="290" width="150" height="200" as="geometry" />
        </mxCell>
        <mxCell id="ZcXm5Vle8xfI6ytua30U-27" value="Status = 1 or 0: para to sa email pag 1 ibig sabihin verified na email pag 0 di pa verified&lt;br&gt;&lt;br&gt;user_roles: 0, 1 ,2&amp;nbsp;&lt;br&gt;0 is for applicant&lt;br&gt;1 is for member&lt;br&gt;2 is for admin" style="text;html=1;strokeColor=none;fillColor=none;align=center;verticalAlign=middle;whiteSpace=wrap;rounded=0;" vertex="1" parent="1">
          <mxGeometry x="20" y="188" width="220" height="130" as="geometry" />
        </mxCell>
        <mxCell id="ZcXm5Vle8xfI6ytua30U-28" value="Database columns:" style="text;html=1;align=center;verticalAlign=middle;resizable=0;points=[];autosize=1;strokeColor=none;fillColor=none;" vertex="1" parent="1">
          <mxGeometry x="55" y="158" width="130" height="30" as="geometry" />
        </mxCell>
      </root>
    </mxGraphModel>
  </diagram>
</mxfile>
